<?xml version="1.0" standalone="no"?>
<!DOCTYPE svg PUBLIC "-//W3C//DTD SVG 20010904//EN"
 "http://www.w3.org/TR/2001/REC-SVG-20010904/DTD/svg10.dtd">
<svg version="1.0" xmlns="http://www.w3.org/2000/svg"
 width="640.000000pt" height="640.000000pt" viewBox="0 0 640.000000 640.000000"
 preserveAspectRatio="xMidYMid meet">

<g transform="translate(0.000000,640.000000) scale(0.100000,-0.100000)"
fill="#000000" stroke="none">
<path d="M780 3200 l0 -2620 1090 0 1090 0 0 435 0 435 -655 0 -655 0 0 1750
0 1750 900 0 900 0 0 -530 0 -530 435 0 435 0 0 965 0 965 -1770 0 -1770 0 0
-2620z"/>
<path d="M2550 2965 l0 -435 450 0 450 0 0 -975 0 -975 1090 0 1090 0 0 435 0
435 -655 0 -655 0 0 975 0 975 -885 0 -885 0 0 -435z"/>
</g>
</svg>
